<svg width="52" height="52" viewBox="0 0 52 52" fill="none" xmlns="http://www.w3.org/2000/svg">
<path d="M14.4444 5.77778C12.849 5.77778 11.5556 4.48438 11.5556 2.88889C11.5556 1.2934 12.849 0 14.4444 0C16.0399 0 17.3333 1.2934 17.3333 2.88889C17.3333 4.48438 16.0399 5.77778 14.4444 5.77778Z" fill="#2E2E2E"/>
<path d="M2.88889 5.77778C1.2934 5.77778 0 4.48438 0 2.88889C0 1.2934 1.2934 0 2.88889 0C4.48438 0 5.77778 1.2934 5.77778 2.88889C5.77778 4.48438 4.48438 5.77778 2.88889 5.77778Z" fill="#2E2E2E"/>
<path d="M37.5556 17.3333C35.9601 17.3333 34.6667 16.0399 34.6667 14.4444C34.6667 12.849 35.9601 11.5556 37.5556 11.5556C39.151 11.5556 40.4444 12.849 40.4444 14.4444C40.4444 16.0399 39.151 17.3333 37.5556 17.3333Z" fill="#2E2E2E"/>
<path d="M26 17.3333C24.4045 17.3333 23.1111 16.0399 23.1111 14.4444C23.1111 12.849 24.4045 11.5556 26 11.5556C27.5955 11.5556 28.8889 12.849 28.8889 14.4444C28.8889 16.0399 27.5955 17.3333 26 17.3333Z" fill="#2E2E2E"/>
<path d="M14.4444 17.3333C12.849 17.3333 11.5556 16.0399 11.5556 14.4444C11.5556 12.849 12.849 11.5556 14.4444 11.5556C16.0399 11.5556 17.3333 12.849 17.3333 14.4444C17.3333 16.0399 16.0399 17.3333 14.4444 17.3333Z" fill="#2E2E2E"/>
<path d="M2.88889 17.3333C1.2934 17.3333 0 16.0399 0 14.4444C0 12.849 1.2934 11.5556 2.88889 11.5556C4.48438 11.5556 5.77778 12.849 5.77778 14.4444C5.77778 16.0399 4.48438 17.3333 2.88889 17.3333Z" fill="#2E2E2E"/>
<path d="M37.5556 28.8889C35.9601 28.8889 34.6667 27.5955 34.6667 26C34.6667 24.4045 35.9601 23.1111 37.5556 23.1111C39.151 23.1111 40.4444 24.4045 40.4444 26C40.4444 27.5955 39.151 28.8889 37.5556 28.8889Z" fill="#2E2E2E"/>
<path d="M26 28.8889C24.4045 28.8889 23.1111 27.5955 23.1111 26C23.1111 24.4045 24.4045 23.1111 26 23.1111C27.5955 23.1111 28.8889 24.4045 28.8889 26C28.8889 27.5955 27.5955 28.8889 26 28.8889Z" fill="#2E2E2E"/>
<path d="M14.4444 28.8889C12.849 28.8889 11.5556 27.5955 11.5556 26C11.5556 24.4045 12.849 23.1111 14.4444 23.1111C16.0399 23.1111 17.3333 24.4045 17.3333 26C17.3333 27.5955 16.0399 28.8889 14.4444 28.8889Z" fill="#2E2E2E"/>
<path d="M2.88889 28.8889C1.2934 28.8889 0 27.5955 0 26C0 24.4045 1.2934 23.1111 2.88889 23.1111C4.48438 23.1111 5.77778 24.4045 5.77778 26C5.77778 27.5955 4.48438 28.8889 2.88889 28.8889Z" fill="#2E2E2E"/>
<path d="M49.1111 40.4444C47.5156 40.4444 46.2222 39.151 46.2222 37.5556C46.2222 35.9601 47.5156 34.6667 49.1111 34.6667C50.7066 34.6667 52 35.9601 52 37.5556C52 39.151 50.7066 40.4444 49.1111 40.4444Z" fill="#2E2E2E"/>
<path d="M37.5556 40.4444C35.9601 40.4444 34.6667 39.151 34.6667 37.5556C34.6667 35.9601 35.9601 34.6667 37.5556 34.6667C39.151 34.6667 40.4444 35.9601 40.4444 37.5556C40.4444 39.151 39.151 40.4444 37.5556 40.4444Z" fill="#2E2E2E"/>
<path d="M26 40.4444C24.4045 40.4444 23.1111 39.151 23.1111 37.5556C23.1111 35.9601 24.4045 34.6667 26 34.6667C27.5955 34.6667 28.8889 35.9601 28.8889 37.5556C28.8889 39.151 27.5955 40.4444 26 40.4444Z" fill="#2E2E2E"/>
<path d="M14.4444 40.4444C12.849 40.4444 11.5556 39.151 11.5556 37.5556C11.5556 35.9601 12.849 34.6667 14.4444 34.6667C16.0399 34.6667 17.3333 35.9601 17.3333 37.5556C17.3333 39.151 16.0399 40.4444 14.4444 40.4444Z" fill="#2E2E2E"/>
<path d="M2.88889 40.4444C1.2934 40.4444 0 39.151 0 37.5556C0 35.9601 1.2934 34.6667 2.88889 34.6667C4.48438 34.6667 5.77778 35.9601 5.77778 37.5556C5.77778 39.151 4.48438 40.4444 2.88889 40.4444Z" fill="#2E2E2E"/>
<path d="M49.1111 52C47.5156 52 46.2222 50.7066 46.2222 49.1111C46.2222 47.5156 47.5156 46.2222 49.1111 46.2222C50.7066 46.2222 52 47.5156 52 49.1111C52 50.7066 50.7066 52 49.1111 52Z" fill="#2E2E2E"/>
<path d="M37.5556 52C35.9601 52 34.6667 50.7066 34.6667 49.1111C34.6667 47.5156 35.9601 46.2222 37.5556 46.2222C39.151 46.2222 40.4444 47.5156 40.4444 49.1111C40.4444 50.7066 39.151 52 37.5556 52Z" fill="#2E2E2E"/>
<path d="M26 52C24.4045 52 23.1111 50.7066 23.1111 49.1111C23.1111 47.5156 24.4045 46.2222 26 46.2222C27.5955 46.2222 28.8889 47.5156 28.8889 49.1111C28.8889 50.7066 27.5955 52 26 52Z" fill="#2E2E2E"/>
<path d="M14.4444 52C12.849 52 11.5556 50.7066 11.5556 49.1111C11.5556 47.5156 12.849 46.2222 14.4444 46.2222C16.0399 46.2222 17.3333 47.5156 17.3333 49.1111C17.3333 50.7066 16.0399 52 14.4444 52Z" fill="#2E2E2E"/>
<path d="M2.88889 52C1.2934 52 0 50.7066 0 49.1111C0 47.5156 1.2934 46.2222 2.88889 46.2222C4.48438 46.2222 5.77778 47.5156 5.77778 49.1111C5.77778 50.7066 4.48438 52 2.88889 52Z" fill="#2E2E2E"/>
</svg>
