<svg width="32" height="25" viewBox="0 0 32 25" fill="none" xmlns="http://www.w3.org/2000/svg">
<path d="M31.3307 3.90451C31.1499 3.14944 30.7934 2.46029 30.2968 1.90607C29.8003 1.35185 29.1811 0.952015 28.5013 0.746608C26.0067 -1.98271e-07 16 0 16 0C16 0 5.99333 -1.98271e-07 3.49733 0.746608C2.81788 0.952381 2.19906 1.35236 1.70277 1.90654C1.20648 2.46072 0.850122 3.14968 0.669333 3.90451C0 6.68984 0 12.5 0 12.5C0 12.5 0 18.3102 0.669333 21.0955C0.850115 21.8506 1.20663 22.5398 1.70319 23.094C2.19974 23.6481 2.8189 24.048 3.49867 24.2534C5.99333 25 16 25 16 25C16 25 26.0067 25 28.5027 24.2534C29.1825 24.0482 29.8017 23.6484 30.2983 23.0942C30.7949 22.5399 31.1513 21.8506 31.332 21.0955C32 18.3102 32 12.5 32 12.5C32 12.5 32 6.68984 31.3307 3.90451ZM12.7267 17.775V7.22507L21.0907 12.5L12.7267 17.775Z" fill="white"/>
</svg>
