<svg width="150" height="26" viewBox="0 0 150 26" fill="none" xmlns="http://www.w3.org/2000/svg">
<path d="M12.672 13.632C13.9307 13.8667 14.9653 14.496 15.776 15.52C16.5867 16.544 16.992 17.7173 16.992 19.04C16.992 20.2347 16.6933 21.2907 16.096 22.208C15.52 23.104 14.6773 23.808 13.568 24.32C12.4587 24.832 11.1467 25.088 9.632 25.088H0V2.752H9.216C10.7307 2.752 12.032 2.99733 13.12 3.488C14.2293 3.97867 15.0613 4.66133 15.616 5.536C16.192 6.41067 16.48 7.40267 16.48 8.512C16.48 9.81333 16.128 10.9013 15.424 11.776C14.7413 12.6507 13.824 13.2693 12.672 13.632ZM4.48 11.968H8.576C9.64267 11.968 10.464 11.7333 11.04 11.264C11.616 10.7733 11.904 10.08 11.904 9.184C11.904 8.288 11.616 7.59467 11.04 7.104C10.464 6.61333 9.64267 6.368 8.576 6.368H4.48V11.968ZM8.992 21.44C10.08 21.44 10.9227 21.184 11.52 20.672C12.1387 20.16 12.448 19.4347 12.448 18.496C12.448 17.536 12.128 16.7893 11.488 16.256C10.848 15.7013 9.984 15.424 8.896 15.424H4.48V21.44H8.992Z" fill="white"/>
<path d="M22.8345 5.248C22.0452 5.248 21.3838 5.00267 20.8505 4.512C20.3385 4 20.0825 3.37067 20.0825 2.624C20.0825 1.87733 20.3385 1.25867 20.8505 0.768C21.3838 0.256 22.0452 0 22.8345 0C23.6238 0 24.2745 0.256 24.7865 0.768C25.3198 1.25867 25.5865 1.87733 25.5865 2.624C25.5865 3.37067 25.3198 4 24.7865 4.512C24.2745 5.00267 23.6238 5.248 22.8345 5.248ZM25.0425 7.36V25.088H20.5625V7.36H25.0425Z" fill="white"/>
<path d="M39.9648 25.088L33.9487 17.536V25.088H29.4688V1.408H33.9487V14.88L39.9007 7.36H45.7248L37.9167 16.256L45.7887 25.088H39.9648Z" fill="white"/>
<path d="M64.6363 15.84C64.6363 16.48 64.5936 17.056 64.5083 17.568H51.5482C51.6549 18.848 52.1029 19.8507 52.8923 20.576C53.6816 21.3013 54.6523 21.664 55.8043 21.664C57.4683 21.664 58.6523 20.9493 59.3563 19.52H64.1882C63.6762 21.2267 62.6949 22.6347 61.2443 23.744C59.7936 24.832 58.0122 25.376 55.9002 25.376C54.1936 25.376 52.6576 25.0027 51.2923 24.256C49.9483 23.488 48.8922 22.4107 48.1242 21.024C47.3776 19.6373 47.0042 18.0373 47.0042 16.224C47.0042 14.3893 47.3776 12.7787 48.1242 11.392C48.8709 10.0053 49.9163 8.93867 51.2603 8.192C52.6043 7.44533 54.1509 7.072 55.9002 7.072C57.5856 7.072 59.0896 7.43467 60.4123 8.16C61.7563 8.88533 62.7909 9.92 63.5163 11.264C64.2629 12.5867 64.6363 14.112 64.6363 15.84ZM59.9963 14.56C59.9749 13.408 59.5589 12.4907 58.7482 11.808C57.9376 11.104 56.9456 10.752 55.7723 10.752C54.6629 10.752 53.7242 11.0933 52.9562 11.776C52.2096 12.4373 51.7509 13.3653 51.5802 14.56H59.9963Z" fill="white"/>
<path d="M75.6182 25.312C74.0609 25.312 72.6529 25.0453 71.3942 24.512C70.1569 23.9787 69.1756 23.2107 68.4502 22.208C67.7249 21.2053 67.3516 20.0213 67.3303 18.656H72.1302C72.1942 19.5733 72.5142 20.2987 73.0902 20.832C73.6876 21.3653 74.4982 21.632 75.5222 21.632C76.5676 21.632 77.3889 21.3867 77.9863 20.896C78.5836 20.384 78.8822 19.7227 78.8822 18.912C78.8822 18.2507 78.6796 17.7067 78.2742 17.28C77.8689 16.8533 77.3569 16.5227 76.7383 16.288C76.1409 16.032 75.3089 15.7547 74.2422 15.456C72.7916 15.0293 71.6076 14.6133 70.6902 14.208C69.7942 13.7813 69.0156 13.152 68.3542 12.32C67.7142 11.4667 67.3942 10.336 67.3942 8.928C67.3942 7.60533 67.7249 6.45333 68.3863 5.472C69.0476 4.49067 69.9756 3.744 71.1702 3.232C72.3649 2.69867 73.7303 2.432 75.2663 2.432C77.5703 2.432 79.4369 2.99733 80.8662 4.128C82.3169 5.23733 83.1169 6.79467 83.2663 8.8H78.3382C78.2956 8.032 77.9649 7.40267 77.3463 6.912C76.7489 6.4 75.9489 6.144 74.9463 6.144C74.0716 6.144 73.3676 6.368 72.8343 6.816C72.3223 7.264 72.0663 7.91467 72.0663 8.768C72.0663 9.36533 72.2583 9.86667 72.6423 10.272C73.0476 10.656 73.5383 10.976 74.1143 11.232C74.7116 11.4667 75.5436 11.744 76.6103 12.064C78.0609 12.4907 79.2449 12.9173 80.1622 13.344C81.0796 13.7707 81.8689 14.4107 82.5303 15.264C83.1916 16.1173 83.5222 17.2373 83.5222 18.624C83.5222 19.8187 83.2129 20.928 82.5943 21.952C81.9756 22.976 81.0689 23.7973 79.8743 24.416C78.6796 25.0133 77.2609 25.312 75.6182 25.312Z" fill="white"/>
<path d="M92.6223 11.04V19.616C92.6223 20.2133 92.7609 20.6507 93.0383 20.928C93.3369 21.184 93.8276 21.312 94.5103 21.312H96.5902V25.088H93.7742C89.9982 25.088 88.1103 23.2533 88.1103 19.584V11.04H85.9983V7.36H88.1103V2.976H92.6223V7.36H96.5902V11.04H92.6223Z" fill="white"/>
<path d="M107.685 25.376C105.978 25.376 104.442 25.0027 103.076 24.256C101.711 23.488 100.634 22.4107 99.8445 21.024C99.0765 19.6373 98.6925 18.0373 98.6925 16.224C98.6925 14.4107 99.0872 12.8107 99.8765 11.424C100.687 10.0373 101.786 8.97067 103.173 8.224C104.559 7.456 106.106 7.072 107.812 7.072C109.519 7.072 111.066 7.456 112.452 8.224C113.839 8.97067 114.927 10.0373 115.716 11.424C116.527 12.8107 116.933 14.4107 116.933 16.224C116.933 18.0373 116.517 19.6373 115.685 21.024C114.874 22.4107 113.764 23.488 112.356 24.256C110.97 25.0027 109.413 25.376 107.685 25.376ZM107.685 21.472C108.495 21.472 109.252 21.28 109.956 20.896C110.682 20.4907 111.258 19.8933 111.685 19.104C112.111 18.3147 112.325 17.3547 112.325 16.224C112.325 14.5387 111.876 13.248 110.98 12.352C110.106 11.4347 109.028 10.976 107.748 10.976C106.468 10.976 105.391 11.4347 104.517 12.352C103.663 13.248 103.237 14.5387 103.237 16.224C103.237 17.9093 103.652 19.2107 104.484 20.128C105.338 21.024 106.405 21.472 107.685 21.472Z" fill="white"/>
<path d="M124.699 10.112C125.275 9.17333 126.021 8.43733 126.939 7.904C127.877 7.37067 128.944 7.104 130.139 7.104V11.808H128.955C127.547 11.808 126.48 12.1387 125.755 12.8C125.051 13.4613 124.699 14.6133 124.699 16.256V25.088H120.219V7.36H124.699V10.112Z" fill="white"/>
<path d="M149.636 15.84C149.636 16.48 149.594 17.056 149.508 17.568H136.548C136.655 18.848 137.103 19.8507 137.892 20.576C138.682 21.3013 139.652 21.664 140.804 21.664C142.468 21.664 143.652 20.9493 144.356 19.52H149.188C148.676 21.2267 147.695 22.6347 146.244 23.744C144.794 24.832 143.012 25.376 140.9 25.376C139.194 25.376 137.658 25.0027 136.292 24.256C134.948 23.488 133.892 22.4107 133.124 21.024C132.378 19.6373 132.004 18.0373 132.004 16.224C132.004 14.3893 132.378 12.7787 133.124 11.392C133.871 10.0053 134.916 8.93867 136.26 8.192C137.604 7.44533 139.151 7.072 140.9 7.072C142.586 7.072 144.09 7.43467 145.412 8.16C146.756 8.88533 147.791 9.92 148.516 11.264C149.263 12.5867 149.636 14.112 149.636 15.84ZM144.996 14.56C144.975 13.408 144.559 12.4907 143.748 11.808C142.938 11.104 141.946 10.752 140.772 10.752C139.663 10.752 138.724 11.0933 137.956 11.776C137.21 12.4373 136.751 13.3653 136.58 14.56H144.996Z" fill="white"/>
</svg>
